# xmcd
#
# Track frame offsets:
# 150
# 7164
# 17211
# 33762
# 49495
# 62436
# 68994
# 71304
# 93223
# 103836
# 143552
# 169350
# 182478
# 188485
# 192436
# 194835
# 196089
# 196816
# 200616
# 209534
# 211889
# 214521
# 217280
# 218235
# 225003
# 234129
# 242917
# 249482
# 260176
# 282907
# 295132
# 308755
# 312915
# 319502
# 331573
# 355194
#
# Disc length: 4800 seconds
#
# Revision: 0
# Processed by: cddbd v1.5.1PL2 Copyright (c) Steve Scherf et al.
# Submitted via: Audion 3.0.2 (http://www.panic.com/audion/)
#
DISCID=1d12be24
DTITLE=tt - yter
DYEAR=1900
DGENRE=
TTITLE0=o
TTITLE1=o
TTITLE2=o
TTITLE3=o
TTITLE4=o
TTITLE5=o
TTITLE6=i
TTITLE7=i
TTITLE8=i
TTITLE9=i
TTITLE10=i
TTITLE11=i
TTITLE12=ii
TTITLE13=i
TTITLE14=oo
TTITLE15=o
TTITLE16=o
TTITLE17=o
TTITLE18=o
TTITLE19=o
TTITLE20=o
TTITLE21=o
TTITLE22=o
TTITLE23=o
TTITLE24=o
TTITLE25=o
TTITLE26=o
TTITLE27=o
TTITLE28=o
TTITLE29=o
TTITLE30=o
TTITLE31=o
TTITLE32=o
TTITLE33=o
TTITLE34=o
TTITLE35=o
EXTD=
EXTT0=
EXTT1=
EXTT2=
EXTT3=
EXTT4=
EXTT5=
EXTT6=
EXTT7=
EXTT8=
EXTT9=
EXTT10=
EXTT11=
EXTT12=
EXTT13=
EXTT14=
EXTT15=
EXTT16=
EXTT17=
EXTT18=
EXTT19=
EXTT20=
EXTT21=
EXTT22=
EXTT23=
EXTT24=
EXTT25=
EXTT26=
EXTT27=
EXTT28=
EXTT29=
EXTT30=
EXTT31=
EXTT32=
EXTT33=
EXTT34=
EXTT35=
PLAYORDER=
